<svg fill="none" xmlns="http://www.w3.org/2000/svg" viewBox="0 0 120 32">
                    <g clip-path="url(#a)">
                        <path d="M46.6 11c.5-.7 1-1.3 1.9-1.7.7-.5 1.6-.7 2.6-.7v3.9h-1c-1.1 0-2 .2-2.6.8-.6.5-1 1.5-1 2.8v7.3H43V8.8h3.7v2.3ZM53 16c0-1.4.2-2.7.8-3.9a6.6 6.6 0 0 1 5.9-3.6 6 6 0 0 1 4.9 2.4v-2h3.7v14.5h-3.7v-2.1c-.5.6-1.2 1.2-2 1.7-.9.4-1.8.6-3 .6a6.4 6.4 0 0 1-5.8-3.6 8.7 8.7 0 0 1-.9-4Zm11.6.1c0-.9-.2-1.7-.6-2.3-.3-.6-.8-1.1-1.4-1.5-.6-.3-1.3-.5-2-.5a3.8 3.8 0 0 0-3.3 2c-.4.6-.5 1.4-.5 2.2 0 1 .1 1.7.5 2.4a3.8 3.8 0 0 0 3.4 2 4 4 0 0 0 1.9-.5c.6-.4 1-.9 1.4-1.5.4-.6.6-1.4.6-2.3ZM86.4 8.8l-9.2 21.5h-4l3.3-7.3-6-14.2h4.2L78.5 19l3.9-10.2h4ZM95.2 23.6a8 8 0 0 1-3.8-.9 7 7 0 0 1-2.7-2.7 8 8 0 0 1-1-3.9c0-1.5.3-2.8 1-4a7 7 0 0 1 2.8-2.6 8 8 0 0 1 3.8-1 8 8 0 0 1 3.9 1 7.6 7.6 0 0 1 3.7 6.6c0 1.5-.3 2.8-1 4a7 7 0 0 1-2.8 2.6c-1.2.6-2.4 1-3.9 1Zm0-3.2a3.6 3.6 0 0 0 3.3-2c.4-.6.6-1.4.6-2.3 0-1.4-.4-2.4-1.1-3.2a3.6 3.6 0 0 0-2.7-1.1c-1.1 0-2 .4-2.7 1.1-.7.8-1.1 1.8-1.1 3.2 0 1.4.4 2.5 1 3.2.8.7 1.6 1.1 2.7 1.1ZM114.1 8.6c1.8 0 3.2.6 4.3 1.7 1 1 1.6 2.6 1.6 4.5v8.6h-3.7v-8c0-1.2-.3-2.1-1-2.7-.5-.7-1.3-1-2.3-1-1 0-1.9.3-2.5 1-.6.6-.8 1.5-.8 2.6v8h-3.8V8.9h3.8v1.8a5 5 0 0 1 1.8-1.4 6 6 0 0 1 2.6-.6ZM25.1 0H7C3 0 0 3 0 6.9V25C0 29 3 32 6.9 32H25c3.8 0 6.9-3 6.9-6.9V7C32 3 29 0 25.1 0Z" fill="#6b7280"></path>
                        <path fillRule="evenodd" clipRule="evenodd" d="M12.7 12a2.5 2.5 0 1 0 0-5.1 2.5 2.5 0 0 0 0 5Zm4-5.1a6.1 6.1 0 1 1 0 12.1V7Zm0 12.1 6.2 6.1H9V11.4l7.7 7.6Z" fill="#6b7280" className="fill-white dark:fill-slate-900"></path>
                    </g>
                </svg>